# xmcd
#
# Track frame offsets: 
#        150
#        45412
#        57195
#        95905
#        127265
#        150974
#        200257
#        226065
#        255925
#        284285
#        321795
#
# Disc length: 4645 seconds
#
# Revision: 0
# Processed by: cddbd v1.5.2PL0 Copyright (c) Steve Scherf et al.
# Submitted via: ExactAudioCopy v0.99pb5
#
DISCID=8c12230b
DTITLE=Newworldaquarium - The Dead Bears
DYEAR=2007
DGENRE=Techno
TTITLE0=The Force
TTITLE1=Star Power
TTITLE2=NoworldbutU
TTITLE3=Avon Sparkle
TTITLE4=The Tide You Can't Feel
TTITLE5=Trespassers
TTITLE6=The Dead Bears
TTITLE7=Shine Eyed
TTITLE8=NY
TTITLE9=Kirana's Lament
TTITLE10=Kemo Sabe
EXTD=
EXTT0=
EXTT1=
EXTT2=
EXTT3=
EXTT4=
EXTT5=
EXTT6=
EXTT7=
EXTT8=
EXTT9=
EXTT10=
PLAYORDER=
